# xmcd
#
# Track frame offsets: 
#        150
#        11400
#        27527
#        39140
#        50680
#        65680
#        97815
#        113880
#        124530
#        137477
#        147752
#
# Disc length: 2673 seconds
#
# Revision: 30
# Processed by: cddbd v1.5.2PL0 Copyright (c) Steve Scherf et al.
# Submitted via: ExactAudioCopy v1.3
#
DISCID=8c0a6f0b
DTITLE=The Doors - The Doors
DYEAR=1967
DGENRE=Psychedelic Rock
TTITLE0=Break On Through (To The Other Side)
TTITLE1=Soul Kitchen
TTITLE2=The Crystal Ship
TTITLE3=Twentieth Century Fox
TTITLE4=Alabama Song (Whisky Bar)
TTITLE5=Light My Fire
TTITLE6=Back Door Man
TTITLE7=I Looked At You
TTITLE8=End Of The Night
TTITLE9=Take It As It Comes
TTITLE10=The End
EXTD=CD 1999 - digitally remastered, 1999\nElektra 7559-74007-2\n1st A
EXTD=lbum
EXTT0=
EXTT1=
EXTT2=
EXTT3=
EXTT4=Bertolt Brecht/Kurt Weill
EXTT5=
EXTT6=Chester Burnett/Willie Dixon
EXTT7=
EXTT8=
EXTT9=
EXTT10=
PLAYORDER=
